<mxfile host="app.diagrams.net" modified="2023-11-26T10:16:38.103Z" agent="Mozilla/5.0 (Windows NT 10.0; Win64; x64) AppleWebKit/537.36 (KHTML, like Gecko) Chrome/119.0.0.0 Safari/537.36" version="21.6.8" etag="m7wScKeVWK8vd5AnI7mc" type="github">
  <diagram name="Lapa-1" id="psTND6D_csCv0ikGAeqY">
    <mxGraphModel>
      <root>
        <mxCell id="0" />
        <mxCell id="1" parent="0" />
      </root>
    </mxGraphModel>
  </diagram>
</mxfile>
